<svg width="138" height="24" viewBox="0 0 138 24" fill="none" xmlns="http://www.w3.org/2000/svg">
<path d="M10.5771 0.405064C12.2658 0.405064 13.7833 0.742617 15.1297 1.41772C16.4761 2.07033 17.5258 2.99297 18.2789 4.18565C19.0548 5.37834 19.4427 6.72855 19.4427 8.23629C19.4427 9.74402 19.0548 11.0942 18.2789 12.2869C17.5258 13.4796 16.4761 14.4135 15.1297 15.0886C13.7833 15.7412 12.2658 16.0675 10.5771 16.0675H5.03184V23.5949H0V0.405064H10.5771ZM10.0637 11.5106C11.296 11.5106 12.3 11.218 13.0759 10.6329C13.8518 10.0253 14.2398 9.22644 14.2398 8.23629C14.2398 7.24613 13.8518 6.45851 13.0759 5.87342C12.3 5.26582 11.296 4.96203 10.0637 4.96203H5.03184V11.5106H10.0637Z" fill="white"/>
<path d="M28.4159 5.7384C29.9448 5.7384 31.3026 6.04219 32.4892 6.64979C33.6759 7.25738 34.5887 8.12377 35.2277 9.24895C35.8894 10.3516 36.2203 11.6568 36.2203 13.1646V23.5949H31.3939V21.8397C30.7777 22.5148 29.9904 23.0436 29.032 23.4262C28.0964 23.8087 27.1379 24 26.1567 24C24.9016 24 23.772 23.775 22.7679 23.3249C21.7638 22.8523 20.9651 22.1997 20.3718 21.3671C19.8013 20.512 19.516 19.5331 19.516 18.4304C19.516 17.3052 19.8355 16.3038 20.4745 15.4262C21.1362 14.5485 22.0262 13.8622 23.1444 13.3671C24.2626 12.872 25.4949 12.6245 26.8413 12.6245C28.3702 12.6245 29.8878 12.9283 31.3939 13.5359V13.1646C31.3939 12.1519 31.0516 11.3193 30.367 10.6667C29.6824 10.0141 28.6555 9.68777 27.2863 9.68777C25.8714 9.68777 24.3425 10.1041 22.6994 10.9367L21.0221 7.66245C23.578 6.37975 26.0426 5.7384 28.4159 5.7384ZM27.2863 20.5907C28.2903 20.5907 29.1803 20.3769 29.9562 19.9494C30.7321 19.4993 31.2113 18.8805 31.3939 18.0928V16.5063C30.2301 16.0563 28.9521 15.8312 27.5601 15.8312C26.6473 15.8312 25.8714 16.0675 25.2325 16.5401C24.5935 17.0127 24.274 17.5978 24.274 18.2954C24.274 18.993 24.5593 19.5556 25.1298 19.9831C25.7003 20.3882 26.4191 20.5907 27.2863 20.5907Z" fill="white"/>
<path d="M46.3108 24C44.8959 24 43.4811 23.775 42.0662 23.3249C40.6514 22.8523 39.4077 22.1997 38.3351 21.3671L40.3547 18.2616C41.2903 18.9142 42.2944 19.4318 43.367 19.8143C44.4623 20.1969 45.4778 20.3882 46.4134 20.3882C47.235 20.3882 47.8625 20.2532 48.2961 19.9831C48.7525 19.6906 48.9807 19.2855 48.9807 18.7679C48.9807 18.2504 48.6955 17.8453 48.125 17.5527C47.5773 17.2602 46.7443 16.9789 45.6261 16.7089C44.1885 16.3713 43.0132 16.0113 42.1004 15.6287C41.2105 15.2461 40.4916 14.7173 39.9439 14.0422C39.4191 13.3671 39.1566 12.4895 39.1566 11.4093C39.1566 10.3066 39.4419 9.32771 40.0124 8.47257C40.5829 7.61744 41.393 6.95359 42.4427 6.48101C43.4925 5.98594 44.7019 5.7384 46.0711 5.7384C47.3034 5.7384 48.5129 5.92968 49.6995 6.31224C50.909 6.6948 52.0272 7.22363 53.0541 7.89874L51.2057 11.0717C50.3613 10.5316 49.4827 10.1041 48.5699 9.78903C47.68 9.45148 46.847 9.2827 46.0711 9.2827C45.3865 9.2827 44.816 9.44023 44.3596 9.75528C43.926 10.0478 43.7093 10.4304 43.7093 10.903C43.7093 11.3305 43.926 11.6568 44.3596 11.8819C44.816 12.1069 45.7174 12.3994 47.0638 12.7595C48.3874 13.097 49.4942 13.4571 50.3841 13.8397C51.2741 14.1997 52.0158 14.7511 52.6091 15.4937C53.2252 16.2138 53.5333 17.1702 53.5333 18.3629C53.5333 20.0731 52.8715 21.4459 51.548 22.481C50.2472 23.4937 48.5015 24 46.3108 24Z" fill="white"/>
<path d="M61.6876 24C60.2727 24 58.8579 23.775 57.443 23.3249C56.0282 22.8523 54.7845 22.1997 53.712 21.3671L55.7315 18.2616C56.6672 18.9142 57.6712 19.4318 58.7438 19.8143C59.8392 20.1969 60.8546 20.3882 61.7903 20.3882C62.6118 20.3882 63.2394 20.2532 63.6729 19.9831C64.1293 19.6906 64.3575 19.2855 64.3575 18.7679C64.3575 18.2504 64.0723 17.8453 63.5018 17.5527C62.9541 17.2602 62.1212 16.9789 61.003 16.7089C59.5653 16.3713 58.3901 16.0113 57.4773 15.6287C56.5873 15.2461 55.8685 14.7173 55.3208 14.0422C54.7959 13.3671 54.5335 12.4895 54.5335 11.4093C54.5335 10.3066 54.8187 9.32771 55.3892 8.47257C55.9597 7.61744 56.7698 6.95359 57.8196 6.48101C58.8693 5.98594 60.0788 5.7384 61.448 5.7384C62.6803 5.7384 63.8897 5.92968 65.0764 6.31224C66.2858 6.6948 67.404 7.22363 68.4309 7.89874L66.5825 11.0717C65.7382 10.5316 64.8596 10.1041 63.9468 9.78903C63.0568 9.45148 62.2239 9.2827 61.448 9.2827C60.7634 9.2827 60.1929 9.44023 59.7365 9.75528C59.3029 10.0478 59.0861 10.4304 59.0861 10.903C59.0861 11.3305 59.3029 11.6568 59.7365 11.8819C60.1929 12.1069 61.0943 12.3994 62.4407 12.7595C63.7642 13.097 64.871 13.4571 65.761 13.8397C66.651 14.1997 67.3926 14.7511 67.9859 15.4937C68.6021 16.2138 68.9101 17.1702 68.9101 18.3629C68.9101 20.0731 68.2484 21.4459 66.9248 22.481C65.6241 23.4937 63.8783 24 61.6876 24Z" fill="white"/>
<path d="M68.7259 0.405064H74.237L78.55 15.9662L83.7872 0.405064H89.264L94.467 15.9662L98.78 0.405064H104.291L97.1712 23.5949H92.1051L86.5256 7.66245L80.9461 23.5949H75.88L68.7259 0.405064Z" fill="white"/>
<path d="M112.32 5.7384C113.849 5.7384 115.207 6.04219 116.393 6.64979C117.58 7.25738 118.493 8.12377 119.132 9.24895C119.793 10.3516 120.124 11.6568 120.124 13.1646V23.5949H115.298V21.8397C114.682 22.5148 113.894 23.0436 112.936 23.4262C112 23.8087 111.042 24 110.061 24C108.806 24 107.676 23.775 106.672 23.3249C105.668 22.8523 104.869 22.1997 104.276 21.3671C103.705 20.512 103.42 19.5331 103.42 18.4304C103.42 17.3052 103.74 16.3038 104.378 15.4262C105.04 14.5485 105.93 13.8622 107.048 13.3671C108.167 12.872 109.399 12.6245 110.745 12.6245C112.274 12.6245 113.792 12.9283 115.298 13.5359V13.1646C115.298 12.1519 114.956 11.3193 114.271 10.6667C113.586 10.0141 112.56 9.68777 111.19 9.68777C109.775 9.68777 108.247 10.1041 106.603 10.9367L104.926 7.66245C107.482 6.37975 109.947 5.7384 112.32 5.7384ZM111.19 20.5907C112.194 20.5907 113.084 20.3769 113.86 19.9494C114.636 19.4993 115.115 18.8805 115.298 18.0928V16.5063C114.134 16.0563 112.856 15.8312 111.464 15.8312C110.551 15.8312 109.775 16.0675 109.136 16.5401C108.498 17.0127 108.178 17.5978 108.178 18.2954C108.178 18.993 108.463 19.5556 109.034 19.9831C109.604 20.3882 110.323 20.5907 111.19 20.5907Z" fill="white"/>
<path d="M123.776 0H128.774V23.5949H123.776V0Z" fill="white"/>
<path d="M133.002 0H138V23.5949H133.002V0Z" fill="white"/>
</svg>
