<svg width="72" height="72" viewBox="0 0 72 72" fill="none" xmlns="http://www.w3.org/2000/svg">
<rect width="72" height="72" rx="16" fill="#5707FF"/>
<path fill-rule="evenodd" clip-rule="evenodd" d="M35.0026 42.7765C32.8308 45.9307 29.1849 48 25.0535 48C18.3965 48 13 42.6274 13 36C13 29.3726 18.3965 24 25.0535 24C29.0603 24 32.6104 25.9463 34.8021 28.9412H52.7768H52.8477L58.3451 34.3047C59.2184 35.1567 59.2184 36.5609 58.3451 37.4129L52.8829 42.7422L49.533 39.5294L46.1474 42.7765L42.8947 39.6706L39.642 42.7765H35.0026ZM52.8829 42.7422L52.9186 42.7765H52.8477L52.8829 42.7422ZM27.4701 36.0001C27.4701 38.4617 25.4649 40.4572 22.9914 40.4572C20.5179 40.4572 18.5127 38.4617 18.5127 36.0001C18.5127 33.5384 20.5179 31.5429 22.9914 31.5429C25.4649 31.5429 27.4701 33.5384 27.4701 36.0001ZM22.9568 37.8515C24.0413 37.8515 24.9205 36.9765 24.9205 35.8972C24.9205 34.8179 24.0413 33.9429 22.9568 33.9429C21.8722 33.9429 20.993 34.8179 20.993 35.8972C20.993 36.9765 21.8722 37.8515 22.9568 37.8515Z" fill="white"/>
</svg>
